<svg width="57" height="57" viewBox="0 0 57 57" fill="none" xmlns="http://www.w3.org/2000/svg">
<g clip-path="url(#clip0)">
<path d="M35.3631 21.6369C34.9278 21.2027 34.2231 21.2027 33.7889 21.6369C33.3536 22.0722 33.3536 22.7769 33.7889 23.211C34.2231 23.6463 34.9278 23.6463 35.3631 23.211C35.7973 22.7768 35.7973 22.0722 35.3631 21.6369Z" fill="#BD0D0D"/>
<path d="M55.6942 21.7724L54.1201 20.1983C54.1781 20.1135 55.8856 18.723 55.8856 16.1277C55.8856 14.6406 55.3063 13.2428 54.2545 12.1917L53.4673 11.4045L54.254 10.6172C56.4294 8.44487 56.4317 4.92011 54.2548 2.74621C52.0802 0.570196 48.5592 0.56886 46.3841 2.74554L45.596 3.53308L44.809 2.7461C42.6342 0.569751 39.1123 0.568972 36.9367 2.74588L36.8021 2.88047L35.2282 1.30652C33.488 -0.433536 30.6716 -0.434761 28.9307 1.30619C27.1901 3.04546 27.1892 5.86339 28.9303 7.60323L35.2278 13.9007L13.8995 35.2289L7.60269 28.9321C5.86542 27.192 3.04437 27.1895 1.30565 28.9311C-0.435405 30.6708 -0.435627 33.4883 1.30543 35.2295L2.87938 36.8034L2.74512 36.9377C0.568773 39.1125 0.567994 42.6344 2.7449 44.81L3.5321 45.5972L2.74546 46.3845C0.569998 48.5569 0.567771 52.0816 2.74468 54.2556C4.91924 56.4314 8.43999 56.4331 10.6156 54.2562L11.4036 53.4687L12.1906 54.2556C14.3654 56.432 17.8874 56.4329 20.063 54.2559L20.1974 54.1214L21.7714 55.6954C23.5117 57.4356 26.3282 57.4366 28.069 55.6958C29.8096 53.9565 29.8105 51.1386 28.0693 49.3987L21.7718 43.1012L43.1 21.773L49.3969 28.0699C51.1341 29.8099 53.9552 29.8125 55.6939 28.0709C57.435 26.3309 57.4352 23.5134 55.6942 21.7724ZM47.9585 4.32005C49.26 3.01752 51.3716 3.0105 52.6808 4.32083C53.9856 5.6237 53.987 7.73738 52.68 9.0427L51.8932 9.83023L47.1704 5.10748L47.9585 4.32005ZM38.5114 4.32005C39.8162 3.0144 41.9289 3.01362 43.2344 4.32028L52.6805 13.7663C53.9861 15.0711 53.9869 17.1838 52.6802 18.4893L52.5458 18.6239L38.3766 4.45487L38.5114 4.32005ZM9.04094 52.6817C7.7394 53.9842 5.62785 53.9912 4.31863 52.6809C3.01387 51.378 3.01242 49.2644 4.31941 47.959L5.10628 47.1715L9.82903 51.8943L9.04094 52.6817ZM18.488 52.6817C17.1832 53.9873 15.0706 53.9881 13.765 52.6815L4.31896 43.2354C3.01331 41.9306 3.01253 39.818 4.31919 38.5124L4.45367 38.3778L18.6227 52.5469L18.488 52.6817ZM26.4949 50.9732C27.3651 51.8424 27.3657 53.2507 26.4947 54.1209C25.6223 54.9933 24.2146 54.9898 23.3456 54.1209C22.4149 53.1902 3.89837 34.6737 2.87972 33.6551C2.01659 32.7919 2.00179 31.3832 2.88039 30.5053C3.74641 29.6378 5.15626 29.633 6.02763 30.5059L26.4949 50.9732ZM20.1972 41.5265L15.4741 36.8034L36.8023 15.4752L41.5254 20.1984L20.1972 41.5265ZM54.1191 26.4965C53.253 27.3639 51.8432 27.3687 50.9718 26.4958L30.5045 6.0286C29.6345 5.15947 29.6338 3.75117 30.5048 2.88092C31.3772 2.00855 32.7848 2.012 33.654 2.88092C34.6727 3.89968 53.2039 22.4309 54.1197 23.3468C54.9828 24.2098 54.9977 25.6186 54.1191 26.4965Z" fill="#BD0D0D"/>
<path d="M32.214 24.7862C31.7791 24.3514 31.0742 24.3514 30.6394 24.7862L21.6367 33.789C21.202 34.2237 21.202 34.9286 21.6367 35.3635C22.0714 35.7982 22.7764 35.7982 23.2111 35.3635L32.2138 26.3607C32.6487 25.9259 32.6487 25.2211 32.214 24.7862Z" fill="#BD0D0D"/>
</g>
<defs>
<clipPath id="clip0">
<rect width="57" height="57" fill="white"/>
</clipPath>
</defs>
</svg>
