<svg width="58" height="58" viewBox="0 0 58 58" fill="none" xmlns="http://www.w3.org/2000/svg">
<g clip-path="url(#clip0)">
<path d="M29.1434 58C23.2213 58 17.5245 56.2282 12.6689 52.8758C12.1543 52.5205 12.0251 51.8147 12.3804 51.3C12.7357 50.785 13.4411 50.6558 13.9562 51.0115C18.4317 54.1011 23.6833 55.7344 29.1434 55.7344C41.1056 55.7344 51.3739 47.7963 54.7405 36.7992C50.3031 42.4207 43.4872 45.8245 36.0757 45.8245C22.9594 45.8245 12.2888 35.1539 12.2888 22.0376C12.2888 14.6266 15.6926 7.81066 21.3141 3.37322C10.317 6.73936 2.37891 17.0077 2.37891 28.9699C2.37891 34.4123 4.00201 39.6498 7.07344 44.116C7.42789 44.6315 7.29735 45.3369 6.78183 45.6913C6.26631 46.0457 5.5614 45.9152 5.20651 45.3997C1.87445 40.5538 0.113281 34.8729 0.113281 28.9699C0.113281 21.5442 2.91567 14.4788 8.00403 9.0749C13.0698 3.69537 19.9087 0.473047 27.2614 0.00222189C27.8123 -0.0331785 28.3106 0.335871 28.4367 0.874399C28.5628 1.41293 28.2818 1.96429 27.7712 2.17802C19.7424 5.53929 14.554 13.3349 14.554 22.0376C14.554 33.9047 24.2086 43.5589 36.0752 43.5589C44.7784 43.5589 52.574 38.3709 55.9353 30.3421C56.149 29.8315 56.7004 29.5505 57.2389 29.6766C57.7774 29.8027 58.146 30.2997 58.1106 30.8519C57.6398 38.2046 54.4179 45.0435 49.0384 50.1093C43.635 55.1976 36.5691 58 29.1434 58Z" fill="#BD0D0D"/>
<path d="M47.9852 34.8384C47.7507 34.8384 47.5162 34.7659 47.3175 34.6207L40.7759 29.8461L34.2339 34.6207C33.837 34.9106 33.298 34.911 32.9007 34.622C32.5029 34.3331 32.3365 33.8207 32.4896 33.3534L35.0092 25.656L28.4469 20.9101C28.0486 20.6221 27.8813 20.1105 28.0331 19.6432C28.184 19.176 28.6194 18.8596 29.1106 18.8596H37.212L39.698 11.1684C39.8493 10.7011 40.2843 10.3843 40.7759 10.3843C41.2671 10.3843 41.7025 10.7011 41.8539 11.1684L44.3399 18.8596H52.4413C52.9324 18.8596 53.3679 19.176 53.5192 19.6432C53.6705 20.1105 53.5033 20.6221 53.105 20.9101L46.5427 25.656L49.0623 33.3534C49.215 33.8207 49.049 34.3331 48.6512 34.622C48.4525 34.7663 48.2189 34.8384 47.9852 34.8384ZM40.7759 27.3105C41.01 27.3105 41.245 27.3831 41.4437 27.5287L45.8161 30.7196L44.1319 25.575C43.9788 25.1073 44.1456 24.5936 44.5448 24.305L48.9419 21.1252H43.5155C43.0243 21.1252 42.5889 20.8084 42.4375 20.3406L40.7759 15.2001L39.1143 20.3406C38.963 20.8084 38.5276 21.1252 38.0364 21.1252H32.61L37.0071 24.305C37.4058 24.5936 37.5731 25.1073 37.4195 25.575L35.7358 30.7196L40.1082 27.5287C40.3069 27.3831 40.5414 27.3105 40.7759 27.3105Z" fill="#BD0D0D"/>
<path d="M9.3988 49.811C9.09967 49.811 8.80894 49.6898 8.59787 49.4792C8.38635 49.2681 8.26599 48.976 8.26599 48.6782C8.26599 48.38 8.38635 48.0879 8.59787 47.8773C8.80894 47.6667 9.10011 47.5454 9.3988 47.5454C9.69705 47.5454 9.98911 47.6667 10.1997 47.8773C10.4104 48.0879 10.5316 48.38 10.5316 48.6782C10.5316 48.976 10.4104 49.2681 10.1997 49.4792C9.98911 49.6898 9.69705 49.811 9.3988 49.811Z" fill="#BD0D0D"/>
</g>
<defs>
<clipPath id="clip0">
<rect width="58" height="58" fill="white"/>
</clipPath>
</defs>
</svg>
