<svg width="63" height="57" viewBox="0 0 63 57" fill="none" xmlns="http://www.w3.org/2000/svg">
<path d="M30.8554 42.2368C30.4267 41.9209 29.8234 42.0132 29.5083 42.4439L29.3893 42.6065C29.0746 43.0369 29.1662 43.6417 29.5944 43.9584C29.7664 44.0857 29.9668 44.1472 30.1653 44.1472C30.4606 44.1472 30.7522 44.0113 30.941 43.7544L31.0618 43.5895C31.3767 43.1588 31.2843 42.5532 30.8554 42.2368Z" fill="#BD0D0D"/>
<path d="M31.1069 51.4423L28.6284 46.9171L30.9424 43.7525C31.2576 43.3218 31.1651 42.7162 30.736 42.3999C30.3071 42.0834 29.7039 42.1763 29.389 42.6072L26.7106 46.2698C26.4885 46.5734 26.4622 46.9787 26.6429 47.3088L29.4181 52.3749V52.3747C29.5937 52.695 29.9233 52.8762 30.2634 52.8762C30.4205 52.8761 30.5797 52.8375 30.727 52.7563C31.1933 52.4988 31.3634 51.9105 31.1069 51.4423Z" fill="#BD0D0D"/>
<path d="M38.2896 46.27L35.6222 42.6223C35.4009 42.32 35.0261 42.173 34.6594 42.2458C34.2928 42.3182 34.001 42.5969 33.9104 42.9608C33.8408 43.2403 33.8988 43.536 34.0686 43.7682L36.3713 46.9173L33.9097 51.4118C33.8315 51.5545 33.7905 51.7155 33.7905 51.8786C33.7905 52.3202 34.0884 52.7059 34.5144 52.8157C34.5943 52.8364 34.6747 52.8464 34.7542 52.8464C35.0992 52.8464 35.4262 52.6595 35.5987 52.345L38.3572 47.3092C38.5381 46.9789 38.5116 46.5736 38.2896 46.27Z" fill="#BD0D0D"/>
<path d="M39.8167 31.0635C39.4997 30.8964 39.1165 30.9192 38.8216 31.1233C38.2484 31.5198 37.7165 31.9399 37.2406 32.3717C34.6471 34.7259 32.1831 34.4073 32.0866 34.3934C32.0285 34.3843 31.9693 34.38 31.9109 34.3819C30.8859 34.4083 29.0379 33.4679 27.0828 31.9262C26.7838 31.6904 26.4772 31.4657 26.171 31.2583C25.8758 31.058 25.4943 31.0377 25.1797 31.2057C24.8649 31.3736 24.6682 31.7023 24.6682 32.0602V35.3797C24.6682 35.6732 24.8012 35.9507 25.0293 36.1344C25.0562 36.1562 25.0842 36.1764 25.1132 36.1949L31.9466 40.7798C31.9478 40.7804 31.9488 40.7813 31.9499 40.7821L31.9679 40.7942C32.1288 40.9011 32.3141 40.955 32.5002 40.955C32.6567 40.955 32.8132 40.9169 32.9563 40.8401C32.9864 40.8239 33.0154 40.8062 33.0432 40.7872C33.0464 40.785 33.0497 40.7829 33.053 40.7807C33.0568 40.7782 33.0606 40.7756 33.0644 40.7731L39.8817 36.199C39.9091 36.1816 39.9358 36.1628 39.9615 36.1427C40.1954 35.9594 40.3321 35.678 40.3321 35.38V31.9202C40.3321 31.5605 40.1337 31.2309 39.8167 31.0635ZM38.4046 34.8621L32.5001 38.8237L26.5956 34.862V33.982C28.0333 35.031 30.1482 36.3178 31.8722 36.3176C31.8757 36.3176 31.8797 36.3176 31.8834 36.3176C32.4622 36.3819 35.4138 36.5566 38.4048 33.9222V34.8621H38.4046Z" fill="#BD0D0D"/>
<path d="M33.4507 39.8284C33.3871 39.4446 33.1006 39.1365 32.7237 39.0461C32.3465 38.9564 31.9526 39.1011 31.7233 39.4148L29.5082 42.4442C29.1931 42.875 29.2855 43.4807 29.7147 43.7969C29.8865 43.9236 30.0862 43.9847 30.2843 43.9847C30.5806 43.9847 30.873 43.8477 31.062 43.5894L33.2655 40.576C33.3909 40.4115 33.4639 40.2067 33.4639 39.9878C33.4638 39.9346 33.4593 39.8809 33.4507 39.8284Z" fill="#BD0D0D"/>
<path d="M47.1821 8.63317C47.163 8.48159 46.7116 5.21017 43.6447 3.91964C43.7338 3.34508 43.7244 2.60665 43.3611 1.88823C42.8728 0.92265 41.9093 0.293428 40.4971 0.0177734C40.4365 0.00592446 40.3751 0 40.3133 0H27.3784C22.1261 0 17.853 4.29043 17.853 9.56431V14.6606C17.853 15.9883 18.3038 17.2831 19.1221 18.3061C19.5277 18.8134 20.0274 19.6993 20.1028 21.0386C20.1321 21.5616 20.5681 21.9657 21.0921 21.9511C21.6136 21.9364 22.0286 21.5076 22.0286 20.9839V14.3395C22.683 11.6222 24.9164 11.0934 25.3003 11.022H29.4843C29.9765 11.022 30.4604 10.9465 30.923 10.7976C31.7185 10.5414 32.9807 10.0699 33.8996 9.71947C34.5143 9.48483 35.195 9.47623 35.8159 9.69532L40.295 11.2741C42.5343 12.1036 42.934 14.0774 42.9835 14.3875V22.3617C42.9835 22.8682 43.3724 23.2884 43.8754 23.326C43.8999 23.3278 43.9239 23.3288 43.9479 23.3288C44.4206 23.3287 44.8288 22.981 44.9004 22.5044C44.9041 22.4795 45.2889 19.9838 46.5298 17.9855C46.9615 17.2899 47.1898 16.4968 47.1898 15.692V8.75534C47.1898 8.71454 47.1873 8.67374 47.1821 8.63317ZM45.2623 15.6915C45.2623 16.1238 45.1408 16.5526 44.9108 16.9339V14.3213C44.9108 14.2863 44.9089 14.2516 44.9051 14.2168C44.89 14.0763 44.4918 10.7602 40.9532 9.45499C40.9489 9.45342 40.9445 9.45186 40.9402 9.45029L36.4542 7.86902C35.9485 7.69073 35.4193 7.60175 34.8905 7.60175C34.3218 7.60175 33.7535 7.7047 33.215 7.91038C31.9285 8.40111 30.9322 8.76227 30.3343 8.95476C30.0623 9.04229 29.7763 9.08678 29.4842 9.08678H25.2224C25.1811 9.08678 25.1397 9.08946 25.0986 9.09472C24.9355 9.11595 21.0917 9.6648 20.1243 14.0182C20.109 14.0874 20.1012 14.158 20.1012 14.2289V16.2204C19.8913 15.7335 19.7802 15.2016 19.7802 14.6607V9.56454C19.7802 5.35795 23.1888 1.93551 27.3782 1.93551H40.216C40.7475 2.04919 41.3934 2.28248 41.6384 2.75711C41.9385 3.33804 41.5967 4.13795 41.5964 4.13863C41.4731 4.40187 41.4746 4.7067 41.5998 4.96883C41.7252 5.23096 41.9614 5.42256 42.2431 5.49063C44.6965 6.08364 45.1969 8.44638 45.2622 8.82856V15.6915H45.2623Z" fill="#BD0D0D"/>
<path d="M44.9053 14.2169C44.8901 14.0764 44.4919 10.7603 40.9533 9.4551C40.949 9.45354 40.9446 9.45197 40.9403 9.45041L36.4543 7.86913C35.4045 7.49914 34.2543 7.51389 33.215 7.91027C31.9285 8.401 30.9322 8.76216 30.3343 8.95476C30.0623 9.04229 29.7763 9.08667 29.4842 9.08667H25.2224C25.1811 9.08667 25.1397 9.08935 25.0986 9.0946C24.9355 9.11584 21.0917 9.66469 20.1244 14.0181C20.109 14.0872 20.1012 14.1579 20.1012 14.2288V22.5471C20.1012 22.5543 20.1013 22.5615 20.1014 22.5686C20.1078 22.8576 20.3114 29.6815 25.0072 32.8024L25.0315 32.8196C25.0516 32.8339 25.0718 32.8482 25.0928 32.8624C25.3606 33.0439 25.6294 33.241 25.8924 33.4483C27.2604 34.5268 29.8384 36.3177 31.8722 36.3177C31.876 36.3177 31.8795 36.3177 31.8834 36.3177C31.9938 36.3299 32.191 36.3462 32.4584 36.3462C33.611 36.3462 36.07 36.043 38.5331 33.8073C38.9464 33.4323 39.4112 33.0654 39.9151 32.7169L39.9871 32.6662C40.0106 32.6496 40.0341 32.6328 40.0584 32.6165C41.6248 31.5602 44.3376 28.8345 44.9072 22.4479C44.9097 22.4193 44.9111 22.3903 44.9111 22.3615V14.3214C44.9109 14.2866 44.9089 14.2518 44.9053 14.2169ZM42.9834 22.3178C42.4583 28.0815 40.0125 30.3159 38.9836 31.0097C38.9471 31.0344 38.911 31.0599 38.8749 31.0854L38.8215 31.1232C38.2483 31.5197 37.7163 31.9398 37.2405 32.3716C34.6567 34.717 32.2007 34.4094 32.0802 34.3924C32.0242 34.384 31.9675 34.3804 31.9108 34.382C30.8858 34.4084 29.0377 33.4679 27.0827 31.9262C26.7837 31.6904 26.4771 31.4657 26.1714 31.2586L26.1477 31.2418C26.1245 31.2253 26.1015 31.2088 26.0743 31.1907C22.2849 28.6724 22.037 22.7791 22.0286 22.5332V14.3395C22.6853 11.6123 24.9325 11.0895 25.2988 11.022H29.4843C29.9765 11.022 30.4604 10.9465 30.923 10.7976C31.7185 10.5414 32.9808 10.0699 33.8996 9.71947C34.5143 9.48484 35.195 9.47623 35.8159 9.69532L40.295 11.2741C42.5343 12.1036 42.934 14.0774 42.9835 14.3875V22.3178H42.9834Z" fill="#BD0D0D"/>
<path d="M33.362 39.5551C33.2118 39.2535 32.9161 39.0522 32.5816 39.0236C32.2476 38.9959 31.9218 39.1433 31.7231 39.4152L29.4146 42.5721C29.0999 43.0027 29.1918 43.6079 29.6203 43.9243C29.7922 44.0513 29.9923 44.1127 30.1906 44.1127C30.4863 44.1127 30.7782 43.9764 30.9671 43.719L33.2757 40.5737C33.3978 40.4073 33.4637 40.1947 33.4637 39.9881C33.4638 39.838 33.4288 39.6896 33.362 39.5551Z" fill="#BD0D0D"/>
<path d="M33.4238 55.135C33.0617 54.7548 32.4636 54.7346 32.077 55.0897L31.8567 55.292C31.5268 55.5949 31.4477 56.0858 31.6657 56.4777L31.6725 56.4899C31.8196 56.7547 32.0821 56.9349 32.3813 56.9766C32.4256 56.9827 32.4699 56.9858 32.514 56.9858C32.7677 56.9858 33.0134 56.885 33.1954 56.7023L33.4088 56.4878C33.7792 56.1159 33.7859 55.5149 33.4238 55.135Z" fill="#BD0D0D"/>
<path d="M33.1434 55.2921L32.9231 55.0897C32.5366 54.7347 31.9383 54.755 31.5763 55.135C31.2141 55.5153 31.2208 56.1164 31.5913 56.4881L31.805 56.7026C31.9871 56.8854 32.2326 56.986 32.4864 56.986C32.5317 56.986 32.5772 56.9829 32.6227 56.9763C32.9229 56.9333 33.1854 56.7507 33.3313 56.4838L33.3381 56.4716C33.5517 56.0804 33.4713 55.5931 33.1434 55.2921Z" fill="#BD0D0D"/>
<path d="M33.1596 55.3072L33.1584 55.3061C33.0096 55.1664 32.8171 55.0743 32.605 55.0509C32.321 55.0198 32.0444 55.1164 31.8432 55.3045L31.8403 55.3072C31.6455 55.4856 31.532 55.7366 31.5263 56.0013C31.5207 56.2662 31.6233 56.5216 31.8102 56.7083L31.8204 56.7185C32.0084 56.9062 32.2541 56.9999 32.4999 56.9999C32.7466 56.9999 32.9932 56.9054 33.1812 56.7167L33.1914 56.7065C33.3775 56.5195 33.4795 56.2643 33.4734 56C33.4676 55.7357 33.3541 55.4854 33.1596 55.3072Z" fill="#BD0D0D"/>
<path d="M32.8127 39.051C32.4135 38.9227 31.9756 39.0715 31.7325 39.4147C31.4607 39.799 31.5056 40.3227 31.8368 40.6568C32.0231 40.8448 32.2705 40.9411 32.5198 40.9411C32.7134 40.9411 32.908 40.883 33.0758 40.7643C33.3323 40.5831 33.485 40.288 33.485 39.973V39.9707C33.485 39.5496 33.2122 39.179 32.8127 39.051Z" fill="#BD0D0D"/>
<path d="M33.2831 39.4068L33.2749 39.3956C33.0276 39.0596 32.5934 38.9212 32.1983 39.0518C31.8032 39.1825 31.5363 39.5532 31.5363 39.9708V39.9874C31.5363 40.3436 31.7354 40.6683 32.048 40.8369C32.1896 40.9132 32.3459 40.9509 32.502 40.9509C32.6903 40.9509 32.8783 40.8961 33.04 40.7886C33.2603 40.6422 33.4111 40.4112 33.4571 40.15C33.5031 39.8889 33.4402 39.62 33.2831 39.4068Z" fill="#BD0D0D"/>
<path d="M43.9645 36.367C43.8646 36.1019 43.6541 35.8942 43.3885 35.7988L39.6934 34.4688C39.6634 34.458 39.6324 34.4484 39.6014 34.4408C39.3377 34.3745 39.0583 34.4232 38.8323 34.575L31.9858 39.1685C31.984 39.1698 31.982 39.171 31.9801 39.1723L32.5177 39.9749L31.9681 39.1805C31.7673 39.3139 31.6234 39.5183 31.5651 39.7528C31.533 39.8816 31.5278 40.0161 31.5495 40.147C31.5743 40.2965 31.6338 40.4383 31.7233 40.5607L36.7358 47.4153C36.918 47.6646 37.207 47.8103 37.5125 47.8103C37.5334 47.8103 37.5544 47.8095 37.5755 47.8081C37.9038 47.7864 38.1985 47.5984 38.357 47.3088L43.9075 37.1759C44.0437 36.9275 44.0645 36.6318 43.9645 36.367ZM37.3958 45.0478L33.8728 40.23L39.4996 36.4548L41.6741 37.2376L37.3958 45.0478Z" fill="#BD0D0D"/>
<path d="M33.4496 39.8207C33.4043 39.5609 33.2554 39.331 33.0372 39.184L26.1679 34.5751C25.9493 34.4282 25.6797 34.3779 25.4229 34.4352C25.3835 34.4439 25.3448 34.4553 25.3068 34.4689L21.6117 35.7989C21.3461 35.8945 21.1355 36.1022 21.0357 36.3671C20.9358 36.6321 20.9565 36.9277 21.0926 37.1761L26.6431 47.3089C26.8016 47.5984 27.0963 47.7865 27.4246 47.8082C27.4455 47.8096 27.4666 47.8102 27.4875 47.8102C27.793 47.8102 28.0819 47.6645 28.2643 47.4151L30.9427 43.7526C30.9448 43.7498 30.9469 43.7467 30.949 43.7437L33.277 40.56C33.4324 40.3474 33.4948 40.0805 33.4496 39.8207ZM29.3892 42.6068C29.3869 42.6099 29.3846 42.613 29.3823 42.6162L27.6041 45.048L23.3257 37.2377L25.5004 36.455L31.127 40.2302L29.3892 42.6068Z" fill="#BD0D0D"/>
<path d="M60.9524 52.8859L59.7092 45.3481C59.3174 42.9727 57.6732 40.988 55.4181 40.169L43.3909 35.7999C43.0201 35.6653 42.6056 35.7709 42.3435 36.0662C42.0814 36.3616 42.0248 36.7875 42.2007 37.1418L44.7118 42.1981L42.2478 42.2362C41.9132 42.2415 41.6052 42.4203 41.4343 42.7092C41.2633 42.998 41.2537 43.3551 41.4089 43.6527L42.4195 45.5903L32.0768 55.0903C32.0662 55.1 32.0559 55.1098 32.0458 55.12L31.8322 55.3344C31.5297 55.6382 31.4628 56.1059 31.6682 56.4829L31.6758 56.4966C31.8449 56.8068 32.1691 56.9999 32.5213 56.9999H57.4779C58.5147 56.9999 59.4937 56.5446 60.1641 55.7507C60.8345 54.9568 61.1218 53.9126 60.9524 52.8859ZM58.6943 54.4991C58.3906 54.8586 57.9473 55.0647 57.478 55.0647H34.9601L44.2684 46.5151C44.5912 46.2188 44.6747 45.7414 44.4717 45.3523L43.8429 44.1469L46.2727 44.1094C46.6039 44.1043 46.9091 43.9287 47.0813 43.6447C47.2533 43.3604 47.2681 43.0076 47.1204 42.71L45.001 38.4426L54.763 41.9886C56.3633 42.5699 57.5301 43.9784 57.8081 45.6641L59.0513 53.202C59.0513 53.2021 59.0513 53.2021 59.0513 53.2021C59.1279 53.667 58.9979 54.1396 58.6943 54.4991Z" fill="#BD0D0D"/>
<path d="M33.1681 55.315L33.1568 55.3048C32.7754 54.958 32.1896 54.9735 31.8267 55.3399L31.8167 55.3501C31.5422 55.6273 31.4608 56.0431 31.6102 56.4039C31.7598 56.7649 32.1109 57 32.5001 57H32.5212C32.9197 57 33.2772 56.7536 33.4203 56.3804C33.5638 56.0069 33.4635 55.5835 33.1681 55.315Z" fill="#BD0D0D"/>
<path d="M33.1377 55.287C32.919 55.0892 32.6223 55.0026 32.3317 55.0523C32.0415 55.1016 31.7896 55.2817 31.648 55.5408L31.6414 55.553C31.4382 55.9249 31.5 56.3863 31.7938 56.6913L31.7972 56.6949C31.986 56.8908 32.2376 56.9896 32.4899 56.9896C32.722 56.9896 32.9548 56.9058 33.1392 56.7367L33.1493 56.7275C33.2368 56.6475 33.3089 56.5516 33.3619 56.4451C33.556 56.0558 33.46 55.5781 33.1377 55.287Z" fill="#BD0D0D"/>
<path d="M33.1794 55.3462L33.1754 55.342C33.1728 55.3394 33.1702 55.3368 33.1677 55.3343L32.954 55.1199C32.9439 55.1097 32.9336 55.0998 32.9231 55.0903L22.5804 45.5903L23.5911 43.6527C23.7464 43.3552 23.7368 42.998 23.5659 42.7092C23.3949 42.4204 23.0869 42.2415 22.7524 42.2362L20.2881 42.1981L22.7993 37.1418C22.9752 36.7876 22.9184 36.3616 22.6564 36.0662C22.3945 35.7707 21.9794 35.6651 21.609 35.7999L9.58191 40.169C7.32685 40.9878 5.68253 42.9725 5.29076 45.3481L4.04756 52.8859C3.87823 53.913 4.16568 54.957 4.8361 55.7508C5.50663 56.5446 6.48576 56.9999 7.52223 56.9999H32.5001C32.8904 56.9999 33.2421 56.7634 33.3908 56.4013C33.5397 56.0391 33.4562 55.6224 33.1794 55.3462ZM7.52234 55.0647C7.05298 55.0647 6.60967 54.8586 6.30619 54.4991C6.00271 54.1397 5.87268 53.667 5.94927 53.2019L7.19247 45.6641C7.47046 43.9781 8.63729 42.5699 10.2376 41.9886L19.9995 38.4426L17.8802 42.7097C17.7324 43.0074 17.7471 43.3602 17.9193 43.6445C18.0913 43.9286 18.3967 44.1041 18.7279 44.1091L21.1577 44.1468L20.5289 45.3522C20.326 45.7412 20.4095 46.2187 20.7321 46.515L30.0404 55.0647H7.52234Z" fill="#BD0D0D"/>
<path d="M35.7802 43.4294C35.8498 43.15 35.7918 42.8541 35.622 42.6219L33.2768 39.415C33.0303 39.0779 32.5957 38.9438 32.2 39.0742C31.9864 39.1445 31.8104 39.2865 31.6933 39.4679L29.3909 42.6046C29.3579 42.6493 29.3286 42.6974 29.3038 42.7472C29.1461 43.0641 29.1733 43.4422 29.3748 43.7329L30.3553 45.1466L29.3108 51.7571C29.2773 51.9694 29.3152 52.1867 29.4183 52.375L31.6557 56.4596C31.8251 56.7689 32.1488 56.961 32.5002 56.961C32.8516 56.961 33.1753 56.7689 33.3446 56.4596L35.5988 52.3447C35.6769 52.2019 35.718 52.0415 35.718 51.8785V51.8779C35.718 51.8272 35.7139 51.7764 35.7061 51.7262L34.6664 45.1467L35.6363 43.7486C35.7029 43.6518 35.7519 43.5434 35.7802 43.4294ZM32.5002 53.9856L31.2661 51.7328L32.3197 45.0651C32.3588 44.8181 32.301 44.5657 32.1587 44.3606L31.3511 43.196L32.5029 41.6268L33.6608 43.2101L32.8629 44.3606C32.7206 44.5656 32.6629 44.8181 32.7019 45.0651L33.7507 51.7024L32.5002 53.9856Z" fill="#BD0D0D"/>
<g clip-path="url(#clip0)">
<path d="M61.0214 33.4403L60.6733 31.8529C60.6536 31.7596 60.6038 31.6897 60.5241 31.6433C60.4379 31.5966 60.3518 31.5902 60.2657 31.6234L60.2159 31.6433L60.0964 31.6732C60.0433 31.6864 59.982 31.7015 59.9124 31.7181C59.8428 31.7347 59.7618 31.7512 59.6688 31.768C59.5764 31.7846 59.4781 31.7997 59.3756 31.813C59.2729 31.826 59.1621 31.8379 59.0426 31.8479C58.9232 31.8577 58.804 31.8628 58.6846 31.8628C57.8427 31.8628 57.0852 31.6349 56.4125 31.179C55.7396 30.7229 55.2441 30.1055 54.926 29.327H58.7739C58.8469 29.327 58.9132 29.3021 58.9727 29.252C59.0325 29.2022 59.069 29.1407 59.082 29.0672L59.3206 27.949C59.3406 27.8495 59.3206 27.7595 59.2611 27.6796C59.1949 27.5996 59.1118 27.5596 59.0125 27.5596H54.4488C54.4289 27.1071 54.4289 26.7576 54.4488 26.5113H59.301C59.4802 26.5113 59.5861 26.4249 59.6193 26.2518L59.8579 25.1136C59.8776 25.0205 59.8548 24.934 59.7883 24.8541C59.7288 24.7742 59.646 24.7341 59.5399 24.7341H54.8863C55.2178 23.9887 55.7149 23.403 56.3778 22.977C57.0407 22.5509 57.7898 22.338 58.625 22.338C58.6516 22.3247 58.7493 22.3281 58.9182 22.348C59.0872 22.3679 59.1835 22.3762 59.2066 22.3729C59.2295 22.3696 59.3161 22.3796 59.465 22.4028C59.6142 22.4261 59.6889 22.4378 59.6889 22.4378L59.8629 22.4727C59.9127 22.4827 59.9508 22.4909 59.9773 22.4977L60.0171 22.5076C60.1032 22.5343 60.1825 22.5259 60.2557 22.4827C60.3287 22.4393 60.3751 22.3745 60.3951 22.288L60.8227 20.7006C60.8425 20.6141 60.8324 20.5342 60.7929 20.461C60.7332 20.381 60.6668 20.3311 60.5939 20.3112C59.9841 20.1581 59.3408 20.0815 58.6648 20.0815C57.1798 20.0815 55.8525 20.5076 54.6825 21.3595C53.5125 22.2114 52.7053 23.3364 52.2612 24.734H51.2868C51.194 24.734 51.1178 24.7639 51.0581 24.8238C50.9986 24.8837 50.9687 24.9602 50.9687 25.0535V26.1916C50.9687 26.2848 50.9985 26.3614 51.0581 26.4211C51.1179 26.4811 51.1941 26.5109 51.2868 26.5109H51.9531C51.933 26.8305 51.9299 27.1798 51.943 27.5593H51.2868C51.2007 27.5593 51.1261 27.5909 51.0631 27.6541C51.0002 27.7173 50.9687 27.7922 50.9687 27.8786V29.0069C50.9687 29.0935 51.0002 29.1682 51.0631 29.2316C51.1261 29.2949 51.2007 29.3262 51.2868 29.3262H52.2315C52.6491 30.7971 53.438 31.967 54.598 32.8356C55.7582 33.7044 57.1138 34.1386 58.6648 34.1386C58.7909 34.1386 58.9184 34.1354 59.0477 34.1285C59.1773 34.1218 59.2981 34.1118 59.4108 34.0986C59.5234 34.0854 59.6345 34.0706 59.7439 34.0539C59.8532 34.0371 59.9527 34.0207 60.0421 34.0038C60.1316 33.9873 60.2161 33.9707 60.2956 33.9542C60.3752 33.9373 60.4465 33.9192 60.5095 33.8991C60.5725 33.8794 60.6253 33.8643 60.6685 33.8545C60.7117 33.8445 60.7465 33.8326 60.7728 33.8196L60.8226 33.8095C60.8956 33.7829 60.952 33.7346 60.9917 33.6646C61.0315 33.5951 61.0412 33.5201 61.0214 33.4403Z" fill="#BD0D0D"/>
</g>
<g clip-path="url(#clip1)">
<path d="M10.2252 26.3753C9.59734 26.0269 8.92983 25.7614 8.26892 25.4861C7.8856 25.3268 7.51879 25.141 7.19495 24.8822C6.55718 24.3712 6.67944 23.5417 7.42627 23.2132C7.63776 23.1203 7.85916 23.0905 8.08387 23.0772C8.94966 23.0307 9.77248 23.19 10.5557 23.5682C10.9456 23.7574 11.0745 23.6976 11.2066 23.2895C11.3454 22.8582 11.4611 22.4202 11.59 21.9856C11.6759 21.6936 11.5701 21.5011 11.2959 21.3784C10.7936 21.1561 10.2781 20.9968 9.73613 20.9105C9.02896 20.801 9.02896 20.7977 9.02566 20.0843C9.02235 19.079 9.02235 19.079 8.01778 19.079C7.87238 19.079 7.72698 19.0757 7.58158 19.079C7.11234 19.0923 7.03303 19.1752 7.01981 19.6497C7.0132 19.862 7.01981 20.0744 7.01651 20.2901C7.0132 20.9205 7.0099 20.9105 6.40847 21.1295C4.95448 21.6604 4.05565 22.6558 3.95982 24.2484C3.8739 25.6586 4.6075 26.6109 5.76078 27.3043C6.47126 27.7323 7.25774 27.9845 8.01117 28.3196C8.30527 28.449 8.58616 28.5983 8.83069 28.8041C9.55438 29.4046 9.4222 30.4033 8.56302 30.7816C8.1037 30.984 7.61793 31.0337 7.11895 30.9707C6.34899 30.8745 5.61208 30.6721 4.91813 30.3104C4.51167 30.0981 4.39271 30.1545 4.25392 30.5958C4.13496 30.9773 4.02921 31.3622 3.92347 31.7471C3.78137 32.2647 3.83424 32.3875 4.32662 32.6297C4.95448 32.935 5.6253 33.0909 6.30934 33.2004C6.84467 33.2867 6.86119 33.3099 6.8678 33.8673C6.87111 34.1195 6.87111 34.375 6.87441 34.6271C6.87772 34.9457 7.02972 35.1315 7.35687 35.1381C7.72698 35.1448 8.10039 35.1448 8.4705 35.1348C8.77451 35.1282 8.92983 34.9623 8.92983 34.6537C8.92983 34.3086 8.94635 33.9602 8.93313 33.6152C8.91661 33.2634 9.06862 33.0843 9.40568 32.9914C10.1822 32.779 10.8431 32.361 11.352 31.7372C12.7664 30.0118 12.2277 27.4868 10.2252 26.3753Z" fill="#BD0D0D"/>
</g>
<defs>
<clipPath id="clip0">
<rect width="14" height="14.0571" fill="white" transform="translate(49 20.0815)"/>
</clipPath>
<clipPath id="clip1">
<rect width="16" height="16.0652" fill="white" transform="translate(0 19.0775)"/>
</clipPath>
</defs>
</svg>
