<svg width="69" height="49" viewBox="0 0 69 49" fill="none" xmlns="http://www.w3.org/2000/svg">
<g clip-path="url(#clip0)">
<path d="M49.3275 13.8651H46.844C46.211 13.8651 45.6754 14.4118 45.6754 15.0578C45.6754 15.7039 46.211 16.2505 46.844 16.2505H49.3275C49.9605 16.2505 50.4961 15.7039 50.4961 15.0578C50.4961 14.4118 49.9605 13.8651 49.3275 13.8651Z" fill="#BD0D0D"/>
<path d="M49.6196 23.6055C49.1814 23.0091 48.4997 22.6613 47.7205 22.6613H21.2795C20.5491 22.6613 19.8673 23.0091 19.3804 23.6055C18.9421 24.2018 18.7474 24.9473 18.9421 25.6927L19.5752 28.2272C19.8186 29.3205 20.7925 30.0659 21.9125 30.0659H47.1362C48.2562 30.0659 49.1814 29.3205 49.4735 28.2272L50.1066 25.6927C50.2527 24.997 50.1066 24.2018 49.6196 23.6055ZM47.8179 25.146L47.1849 27.6805C47.1849 27.7302 47.1362 27.7302 47.0875 27.7302H21.8638C21.8151 27.7302 21.8151 27.7302 21.7664 27.6805L21.1334 25.146V25.0963C21.1334 25.0466 21.1821 25.0467 21.1821 25.0467H47.6719C47.6719 25.0467 47.7205 25.0466 47.7205 25.0963C47.8179 25.0963 47.8179 25.146 47.8179 25.146Z" fill="#BD0D0D"/>
<path d="M16.1179 0C14.0727 0 12.2223 1.29209 11.5406 3.27992L8.42414 11.927C8.13197 10.1876 6.62244 8.79615 4.82075 8.79615H3.65208C1.65561 8.79615 0 10.4361 0 12.5233C0 14.6105 1.60692 16.2505 3.65208 16.2505H4.86944C5.45378 16.2505 5.98941 16.1014 6.47636 15.8529L3.84686 19.2323C2.97036 20.3256 2.53211 21.717 2.53211 23.1085V46.5649C2.53211 47.9067 3.60339 49 4.91814 49H8.61891C9.93366 49 11.0049 47.9067 11.0049 46.5649V41.4463H58.0925V46.5649C58.0925 47.9067 59.1637 49 60.4785 49H64.1793C65.494 49 66.5653 47.9067 66.5653 46.5649V23.1085C66.5653 21.717 66.0783 20.3256 65.2505 19.2323L62.621 15.8529C63.108 16.1014 63.6436 16.2505 64.2279 16.2505H65.4453C67.4418 16.2505 69.0974 14.6105 69.0974 12.5233C69.0974 10.4361 67.4905 8.79615 65.4453 8.79615H64.2279C62.4263 8.79615 60.9167 10.1379 60.6246 11.927L57.4594 3.27992C56.7777 1.34178 54.9273 0 52.8821 0H16.1179ZM4.86944 13.8651H3.65208C2.92167 13.8651 2.33733 13.2688 2.33733 12.5233C2.33733 11.7779 2.92167 11.1815 3.65208 11.1815H4.86944C5.59986 11.1815 6.18419 11.7779 6.18419 12.5233C6.18419 13.2688 5.59986 13.8651 4.86944 13.8651ZM8.66761 46.5649C8.66761 46.6146 8.61891 46.6643 8.57022 46.6643H4.86944C4.82075 46.6643 4.77205 46.6146 4.77205 46.5649V40.7008C5.50247 41.1481 6.37897 41.4463 7.30416 41.4463H8.61891L8.66761 46.5649ZM48.1588 39.0609H20.8412V36.4767C20.8412 36.427 20.8899 36.3773 20.9386 36.3773H48.1101C48.1588 36.3773 48.2075 36.427 48.2075 36.4767L48.1588 39.0609ZM64.2279 46.5649C64.2279 46.6146 64.1793 46.6643 64.1306 46.6643H60.4298C60.3811 46.6643 60.3324 46.6146 60.3324 46.5649V41.4463H61.6471C62.5723 41.4463 63.4488 41.1978 64.1793 40.7008L64.2279 46.5649ZM63.4001 20.7231C63.9358 21.4189 64.2279 22.2637 64.2279 23.1582V36.5264C64.2279 37.9675 63.108 39.1105 61.6958 39.1105H50.4961V36.5264C50.4961 35.1846 49.4248 34.0913 48.1101 34.0913H20.9386C19.6239 34.0913 18.5526 35.1846 18.5526 36.5264V39.1105H7.35286C5.94072 39.1105 4.82075 37.9675 4.82075 36.5264V23.1085C4.82075 22.214 5.11292 21.3692 5.64855 20.6734L9.15455 16.2008H41.9259C42.5589 16.2008 43.0946 15.6542 43.0946 15.0081C43.0946 14.3621 42.5589 13.8154 41.9259 13.8154H10.2258L13.7318 4.02536C14.0727 2.98174 15.0466 2.3357 16.1179 2.3357H52.9308C54.0021 2.3357 54.976 3.03144 55.3169 4.02536L58.8229 13.8154H54.2943C53.6613 13.8154 53.1256 14.3621 53.1256 15.0081C53.1256 15.6542 53.6613 16.2008 54.2943 16.2008H59.8941L63.4001 20.7231ZM62.8158 12.5233C62.8158 11.7779 63.4001 11.1815 64.1306 11.1815H65.3479C66.0783 11.1815 66.6627 11.7779 66.6627 12.5233C66.6627 13.2688 66.0783 13.8651 65.3479 13.8651H64.1306C63.4488 13.8651 62.8158 13.2688 62.8158 12.5233Z" fill="#BD0D0D"/>
<path d="M12.271 31.5071C10.9563 31.5071 9.88498 32.6004 9.88498 33.9422C9.88498 35.284 10.9563 36.3773 12.271 36.3773C13.5858 36.3773 14.657 35.284 14.657 33.9422C14.657 32.6004 13.5858 31.5071 12.271 31.5071Z" fill="#BD0D0D"/>
<path d="M56.729 31.5071C55.4143 31.5071 54.343 32.6004 54.343 33.9422C54.343 35.284 55.4143 36.3773 56.729 36.3773C58.0438 36.3773 59.115 35.284 59.115 33.9422C59.115 32.6004 58.0438 31.5071 56.729 31.5071Z" fill="#BD0D0D"/>
<path d="M11.638 21.4188C9.30063 21.4188 7.40155 23.357 7.40155 25.7424C7.40155 28.1277 9.30063 30.0659 11.638 30.0659C13.9753 30.0659 15.8744 28.1277 15.8744 25.7424C15.8744 23.357 13.9753 21.4188 11.638 21.4188ZM11.638 27.7302C10.5667 27.7302 9.69019 26.8357 9.69019 25.7424C9.69019 24.649 10.5667 23.7545 11.638 23.7545C12.7092 23.7545 13.5857 24.649 13.5857 25.7424C13.5857 26.8357 12.7092 27.7302 11.638 27.7302Z" fill="#BD0D0D"/>
<path d="M57.362 21.4188C55.0247 21.4188 53.1256 23.357 53.1256 25.7424C53.1256 28.1277 55.0247 30.0659 57.362 30.0659C59.6994 30.0659 61.5985 28.1277 61.5985 25.7424C61.5985 23.357 59.6994 21.4188 57.362 21.4188ZM57.362 27.7302C56.2908 27.7302 55.4143 26.8357 55.4143 25.7424C55.4143 24.649 56.2908 23.7545 57.362 23.7545C58.4333 23.7545 59.3098 24.649 59.3098 25.7424C59.3098 26.8357 58.4333 27.7302 57.362 27.7302Z" fill="#BD0D0D"/>
</g>
<defs>
<clipPath id="clip0">
<rect width="69" height="49" fill="white"/>
</clipPath>
</defs>
</svg>
