<svg width="58" height="58" viewBox="0 0 58 58" fill="none" xmlns="http://www.w3.org/2000/svg">
<g clip-path="url(#clip0)">
<path d="M14.239 14.2727C13.6137 14.2727 13.1062 14.7802 13.1062 15.4055C13.1062 16.0308 13.6137 16.5383 14.239 16.5383C14.8643 16.5383 15.3718 16.0308 15.3718 15.4055C15.3718 14.7802 14.8643 14.2727 14.239 14.2727Z" fill="#BD0D0D"/>
<path d="M24.4337 35.4552H21.0355V32.057C21.0355 31.4315 20.5283 30.9242 19.9027 30.9242C19.2772 30.9242 18.77 31.4315 18.77 32.057V35.4552H15.3718C14.7463 35.4552 14.239 35.9625 14.239 36.5879C14.239 37.2133 14.7463 37.7207 15.3718 37.7207H18.77V41.1189C18.77 41.7445 19.2773 42.2518 19.9027 42.2518C20.5281 42.2518 21.0355 41.7445 21.0355 41.1189V37.7207H24.4337C25.0593 37.7207 25.5666 37.2135 25.5666 36.5879C25.5666 35.9624 25.0594 35.4552 24.4337 35.4552Z" fill="#BD0D0D"/>
<path d="M55.0069 36.4748C52.5028 32.1377 46.9661 30.6533 42.6282 33.158L38.0269 35.8144V25.9775C38.0269 24.7615 37.6248 23.5547 36.8942 22.5793L31.2305 15.0279V11.8123C32.5489 11.3447 33.496 10.0857 33.496 8.60881V3.39821C33.4958 1.52443 31.9714 0 30.0976 0H9.70797C7.83419 0 6.30965 1.52443 6.30965 3.39821V8.60892C6.30965 10.0855 7.25679 11.3448 8.57516 11.8124V15.028L2.91098 22.5799C2.18077 23.5548 1.77863 24.7615 1.77863 25.9775V47.9156C1.77863 51.0386 4.31941 53.5793 7.44235 53.5793H25.6469C28.1867 57.8368 33.6634 59.2616 37.9565 56.7828L51.6902 48.8534C55.9898 46.3705 57.5235 40.8355 55.0069 36.4748ZM8.57516 3.39821C8.57516 2.77358 9.08334 2.2654 9.70786 2.2654H30.0975C30.7221 2.2654 31.2303 2.77358 31.2303 3.39821V8.60892C31.2303 9.23355 30.7221 9.74162 30.0975 9.74162H9.70797C9.08334 9.74162 8.57527 9.23344 8.57527 8.60892V3.39821H8.57516ZM4.72394 23.9385L10.6141 16.0851C10.7611 15.8892 10.8407 15.6506 10.8407 15.4055V12.0072H28.9648V14.2728H18.77C18.1445 14.2728 17.6372 14.78 17.6372 15.4056C17.6372 16.0311 18.1445 16.5384 18.77 16.5384H29.5312L35.0812 23.9381C35.4439 24.4224 35.6692 25.0019 35.7373 25.6004H4.06827C4.13623 25.0017 4.36155 24.4223 4.72394 23.9385ZM7.44246 51.3138C5.56868 51.3138 4.04425 49.7894 4.04425 47.9156V46.7716H24.6246C24.2654 48.2403 24.2678 49.809 24.6791 51.3139H7.44246V51.3138ZM25.5131 44.5173H4.04414V27.8657H35.7613V37.1223L28.8943 41.0873C27.4625 41.9144 26.3053 43.0917 25.5131 44.5173ZM36.8239 54.8208C33.573 56.6979 29.419 55.5878 27.5406 52.3347C25.6532 49.0502 26.797 44.915 30.0273 43.0491L36.1759 39.4991L42.9724 51.2708L36.8239 54.8208ZM50.5574 46.8915L44.9345 50.1381L38.1378 38.3662L43.7609 35.12C47.0139 33.242 51.1664 34.3541 53.0448 37.6073C54.9315 40.8769 53.7842 45.0282 50.5574 46.8915Z" fill="#BD0D0D"/>
</g>
<defs>
<clipPath id="clip0">
<rect width="58" height="58" fill="white"/>
</clipPath>
</defs>
</svg>
