<svg width="67" height="66" viewBox="0 0 67 66" fill="none" xmlns="http://www.w3.org/2000/svg">
<g clip-path="url(#clip0)">
<path d="M47.0458 4.1853C43.364 4.1853 39.7677 5.20483 36.6426 7.13404C36.0433 7.45322 31.4997 10.0408 32.2049 14.7548C32.4624 16.4764 33.3872 17.7068 34.2816 18.8969C35.5438 20.5762 36.7483 22.1815 36.4199 25.4287C36.4021 25.4195 36.3855 25.4086 36.3675 25.3996C35.4332 24.9303 34.3693 24.8478 33.3718 25.1669C32.4586 25.4592 31.7023 26.0567 31.2157 26.8614C30.8833 26.5444 30.5034 26.2721 30.0825 26.0543C29.3491 25.675 28.5484 25.4891 27.7427 25.5009C27.6821 24.8546 27.7163 24.4298 27.7551 23.9539C27.8042 23.3518 27.8597 22.6694 27.7122 21.5957C27.4254 19.5097 26.2127 17.6874 24.2973 16.4642C21.9872 14.9887 18.8823 14.5559 16.1946 15.3339C11.3067 16.7489 8.4809 21.8196 9.89537 26.6372C10.3128 28.0588 11.0798 29.3702 12.1134 30.4293C12.656 30.9853 12.9495 31.7193 12.919 32.4429C12.8323 34.4994 13.1207 36.5418 13.7763 38.5138C15.1803 42.7363 18.2315 46.2275 22.368 48.3437C24.957 49.6682 27.7485 50.3409 30.533 50.3407C32.1972 50.3407 33.8591 50.1005 35.473 49.6157C36.3668 49.3471 37.2423 49.0076 38.0755 48.6061C40.3548 47.5076 42.1616 45.6327 43.1628 43.326C43.721 42.0404 44.0094 40.6662 44.0238 39.2866C44.6423 39.3986 45.2962 39.3661 45.932 39.1643C47.9715 38.5168 49.1037 36.3229 48.4564 34.2742L47.4526 31.0978C46.7854 28.9873 45.0949 27.3795 42.9304 26.7966C41.5485 26.4248 40.1179 26.5108 38.8306 27.0064C39.7793 21.8802 37.914 19.3963 36.3856 17.3627C35.6188 16.3424 34.9566 15.4612 34.7946 14.3786C34.3304 11.2758 37.7561 9.46958 37.8979 9.39636C37.9317 9.37921 37.9648 9.36065 37.997 9.34067C40.7135 7.65444 43.8428 6.76318 47.0466 6.76318C56.6063 6.76318 64.3837 14.6363 64.3837 24.3134C64.3837 34.9329 55.9193 43.8565 48.8189 49.4724C42.17 54.7309 35.4331 58.1571 33.4997 59.0947C31.641 58.1932 25.3477 54.9949 18.9647 50.0836C18.3951 49.6454 17.5729 49.7449 17.1279 50.3059C16.6829 50.8671 16.7841 51.6771 17.3536 52.1154C25.1716 58.131 32.6371 61.5533 32.9512 61.696C33.1252 61.7752 33.3124 61.8146 33.4995 61.8146C33.6866 61.8146 33.8739 61.775 34.0478 61.696C34.3824 61.5439 42.3341 57.8979 50.414 51.5166C55.1898 47.7452 59.0025 43.8014 61.7464 39.7954C65.2325 34.7057 67.0001 29.4968 67.0001 24.3137C67.0003 13.2148 58.0487 4.1853 47.0458 4.1853ZM26.019 29.9824C26.6119 29.4691 27.2521 28.914 27.6001 28.0899C28.034 28.0497 28.4709 28.1324 28.8659 28.3368C29.3249 28.5743 29.679 28.9509 29.8857 29.4112L29.3398 30.4662L25.5542 30.3923C25.7111 30.2488 25.8668 30.114 26.019 29.9824ZM37.5195 31.6886L37.9554 30.8461C38.1293 30.5924 38.3352 30.3571 38.5712 30.1467C39.5698 29.2568 40.9411 28.9341 42.2397 29.2837C43.5385 29.6334 44.5528 30.5983 44.9531 31.8645L45.957 35.0407C46.1798 35.7458 45.8082 36.4949 45.1286 36.7107C44.4833 36.916 43.7849 36.5983 43.5231 35.9879L42.7581 33.5674C42.5432 32.8877 41.8096 32.508 41.1196 32.7198C40.4296 32.9315 40.0443 33.654 40.2592 34.3339L41.0442 36.8178C42.2294 40.5853 40.497 44.5693 36.925 46.2904C36.2161 46.6318 35.4706 46.9211 34.7092 47.1498C27.1647 49.4161 18.7174 45.0935 16.263 37.7115C15.7052 36.0338 15.4598 34.2973 15.5335 32.5502C15.5935 31.1276 15.0346 29.7036 13.9999 28.643C13.2487 27.8729 12.7133 26.9572 12.4092 25.921C11.394 22.4631 13.423 18.8233 16.9322 17.8074C17.5851 17.6184 18.2708 17.5261 18.9572 17.5261C20.3486 17.5261 21.743 17.9055 22.8734 18.6274C23.7683 19.1989 24.8843 20.2378 25.1186 21.9416C25.2284 22.7399 25.1903 23.2068 25.1462 23.7475C25.0928 24.4034 25.0322 25.1467 25.2174 26.4046C25.3239 27.1284 25.1795 27.2766 24.291 28.0458C24.0467 28.2573 23.7698 28.497 23.4832 28.7754C23.4829 28.7758 23.4738 28.7846 23.4734 28.785L23.4574 28.8003C22.7416 29.4892 22.5164 30.5246 22.8835 31.4381C23.2479 32.3449 24.1243 32.9432 25.1163 32.9626L29.6078 33.0502C30.4133 33.0674 31.1613 32.6226 31.5251 31.9195L33.4187 28.2597C33.5773 27.953 33.8478 27.7255 34.1802 27.6191C34.5129 27.5129 34.8672 27.5402 35.1788 27.6969C35.4903 27.8531 35.7212 28.1195 35.8292 28.447C35.9371 28.7745 35.9091 29.1237 35.7504 29.4305L35.6837 29.5594C35.4655 29.899 35.2806 30.2569 35.1309 30.6277L33.8569 33.0902C33.2844 34.1967 32.2567 35.0458 31.0375 35.4199C30.5547 35.5679 30.056 35.6383 29.556 35.6281L23.8966 35.516C23.1707 35.5024 22.5765 36.0672 22.562 36.7789C22.5474 37.4907 23.1214 38.0793 23.844 38.0936L29.5034 38.2057C30.2854 38.2208 31.0634 38.1121 31.8156 37.8815C33.1341 37.477 34.309 36.7117 35.2012 35.7008L36.1234 38.6184C36.3382 39.2981 37.0713 39.6777 37.7619 39.4659C38.4519 39.2543 38.8371 38.5316 38.6223 37.8519L37.4567 34.1642C37.1968 33.3412 37.2302 32.4712 37.5195 31.6886Z" fill="#BD0D0D"/>
<path d="M15.3136 47.0772L15.2761 47.0441C14.7384 46.5684 13.9109 46.6122 13.4281 47.1419C12.9452 47.6716 12.9897 48.4867 13.5274 48.9623L13.5649 48.9955C13.8149 49.2165 14.1274 49.3255 14.4388 49.3255C14.7974 49.3255 15.1545 49.1811 15.4129 48.8976C15.8958 48.3677 15.8513 47.5529 15.3136 47.0772Z" fill="#BD0D0D"/>
<path d="M30.3984 7.15996C27.2639 5.21385 23.6524 4.1853 19.9543 4.1853C8.95147 4.1853 0 13.2148 0 24.3137C0 31.3229 3.20005 38.3043 9.51129 45.0643C9.76934 45.3407 10.1215 45.4807 10.4748 45.4807C10.7914 45.4807 11.109 45.3682 11.3603 45.1404C11.8923 44.6585 11.927 43.8431 11.4377 43.319C5.58471 37.0501 2.6172 30.6557 2.6172 24.3137C2.6172 14.6364 10.3947 6.76344 19.9543 6.76344C23.1577 6.76344 26.2869 7.65483 29.003 9.34106C29.6142 9.72069 30.4224 9.54022 30.8078 8.93784C31.1931 8.33559 31.0097 7.53959 30.3984 7.15996Z" fill="#BD0D0D"/>
<path d="M47.046 10.3127C46.3232 10.3127 45.7372 10.8899 45.7372 11.6018C45.7372 12.3138 46.3231 12.8909 47.0458 12.8909H47.053C47.7758 12.8909 48.3581 12.3138 48.3581 11.6018C48.3581 10.8899 47.7687 10.3127 47.046 10.3127Z" fill="#BD0D0D"/>
<path d="M58.4108 16.2624C56.7923 13.9449 54.551 12.1955 51.9291 11.203C51.2546 10.9476 50.4975 11.2793 50.2382 11.9438C49.9789 12.6083 50.3156 13.354 50.9902 13.6095C55.3735 15.2688 58.3186 19.5706 58.3186 24.3138C58.3186 25.0258 58.9045 25.6029 59.6272 25.6029C60.35 25.6029 60.9358 25.0258 60.9358 24.3138C60.9358 21.4117 60.0627 18.6276 58.4108 16.2624Z" fill="#BD0D0D"/>
</g>
<defs>
<clipPath id="clip0">
<rect width="67" height="66" fill="white"/>
</clipPath>
</defs>
</svg>
