<svg width="24" height="24" viewBox="0 0 24 24" fill="none" xmlns="http://www.w3.org/2000/svg">
<path d="M7.11842 15.8022H20.1627C21.6418 15.8022 22.8484 14.5789 22.8484 13.0795V7.5156C22.8484 7.51067 22.8484 7.5008 22.8484 7.49587C22.8484 7.48107 22.8484 7.47121 22.8484 7.45641C22.8484 7.44654 22.8484 7.43668 22.8435 7.42681C22.8435 7.41695 22.8387 7.40215 22.8387 7.39229C22.8387 7.38242 22.8338 7.37256 22.8338 7.36269C22.8289 7.35283 22.8289 7.34296 22.8241 7.32816C22.8192 7.3183 22.8192 7.30843 22.8143 7.29857C22.8095 7.2887 22.8095 7.27884 22.8046 7.26897C22.7997 7.25911 22.7949 7.24924 22.79 7.23445C22.7851 7.22458 22.7803 7.21472 22.7754 7.20978C22.7705 7.19992 22.7657 7.19005 22.7608 7.18019C22.7559 7.17032 22.7511 7.16539 22.7462 7.15553C22.7414 7.14566 22.7316 7.1358 22.7268 7.12593C22.7219 7.11607 22.717 7.11113 22.7073 7.10127C22.7024 7.0914 22.6927 7.08647 22.6878 7.07661C22.683 7.06674 22.6732 7.06181 22.6684 7.05194C22.6635 7.04208 22.6538 7.03715 22.6489 7.03221C22.6392 7.02235 22.6343 7.01742 22.6246 7.00755C22.6148 7.00262 22.61 6.99275 22.6003 6.98782C22.5905 6.98289 22.5808 6.97302 22.5711 6.96809C22.5613 6.96316 22.5565 6.95823 22.5467 6.95329C22.537 6.94836 22.5273 6.94343 22.5175 6.93356C22.5078 6.92863 22.4981 6.9237 22.4883 6.91877C22.4786 6.91383 22.4689 6.9089 22.4592 6.90397C22.4494 6.89904 22.4397 6.8941 22.43 6.88917C22.4202 6.88424 22.4105 6.88424 22.4008 6.87931C22.391 6.87437 22.3764 6.86944 22.3667 6.86944C22.357 6.86944 22.3472 6.86451 22.3424 6.86451C22.3278 6.85958 22.3181 6.85958 22.3035 6.85958C22.2986 6.85958 22.2937 6.85464 22.284 6.85464L5.75123 4.5413V2.2033C5.75123 2.17864 5.75123 2.15397 5.74637 2.13424C5.74637 2.12931 5.74637 2.12438 5.7415 2.11451C5.7415 2.09972 5.73664 2.08492 5.73664 2.07012C5.73177 2.05532 5.73177 2.04546 5.7269 2.03066C5.7269 2.0208 5.72204 2.01586 5.72204 2.006C5.71717 1.9912 5.71231 1.9764 5.70744 1.96161C5.70744 1.95667 5.70258 1.94681 5.70258 1.94188C5.69771 1.92708 5.69285 1.91721 5.68312 1.90242C5.67825 1.89748 5.67825 1.88762 5.67339 1.88269C5.66852 1.87282 5.66365 1.86296 5.65392 1.85309C5.64906 1.84323 5.64419 1.83829 5.63933 1.82843C5.63446 1.81856 5.6296 1.81363 5.62473 1.80377C5.61987 1.7939 5.61013 1.78404 5.60527 1.77417C5.6004 1.76924 5.59554 1.76431 5.59067 1.75937C5.58094 1.74951 5.57121 1.73965 5.56148 1.72978C5.55661 1.72485 5.55175 1.71992 5.54688 1.71498C5.53715 1.70512 5.52742 1.69525 5.51283 1.68539C5.50796 1.68045 5.49823 1.67552 5.49336 1.67059C5.48363 1.66072 5.4739 1.65579 5.46417 1.64593C5.44957 1.63606 5.43498 1.6262 5.42525 1.62127C5.42038 1.61633 5.41552 1.61633 5.41065 1.6114C5.39119 1.60153 5.36686 1.59167 5.3474 1.58181L1.76157 0.0527313C1.42586 -0.0903111 1.04149 0.0675288 0.900388 0.407871C0.75929 0.748213 0.914984 1.13788 1.2507 1.28092L4.4327 2.64229V5.66098V6.13943V9.80921V13.0893V17.2326C4.4327 18.6137 5.45444 19.7581 6.77297 19.9307C6.53457 20.3352 6.39347 20.8087 6.39347 21.3118C6.39347 22.7965 7.5855 24 9.04514 24C10.5048 24 11.6968 22.7915 11.6968 21.3118C11.6968 20.8185 11.5654 20.35 11.3319 19.9554H17.2385C17.005 20.3549 16.8736 20.8185 16.8736 21.3118C16.8736 22.7965 18.0657 24 19.5253 24C20.9849 24 22.177 22.7915 22.177 21.3118C22.177 19.832 20.9849 18.6236 19.5253 18.6236H7.11842C6.35941 18.6236 5.74637 17.9972 5.74637 17.2326V15.4273C6.14533 15.6641 6.61728 15.8022 7.11842 15.8022ZM10.388 21.3069C10.388 22.0566 9.78468 22.6633 9.05 22.6633C8.31532 22.6633 7.712 22.0517 7.712 21.3069C7.712 20.5621 8.31532 19.9504 9.05 19.9504C9.78468 19.9504 10.388 20.5571 10.388 21.3069ZM20.8682 21.3069C20.8682 22.0566 20.2648 22.6633 19.5302 22.6633C18.7955 22.6633 18.1922 22.0517 18.1922 21.3069C18.1922 20.5621 18.7955 19.9504 19.5302 19.9504C20.2648 19.9504 20.8682 20.5571 20.8682 21.3069ZM20.1627 14.4704H7.11842C6.35941 14.4704 5.74637 13.844 5.74637 13.0795V9.79935V6.12957V5.88294L21.5347 8.08777V13.0745C21.5347 13.8489 20.9168 14.4704 20.1627 14.4704Z" fill="white"/>
</svg>
